# File created by Blade
# Date/Time:  Tue Sep 30 19:31:45 2014
#---------------------------------------------------------
:version 1.10
:name HOM
:units
  mass 1.0
  length 1.000000
  angle deg
:documentation
     Acclaim Skeleton File
:root
   axis xyz
   order TX TY TZ RX RY RZ
   position 0.000000 0.000000 0.000000
   orientation 0 0 0
:bonedata
   begin
      id 1
      name Spine_dum
      direction 0.000000 1.000000 0.000000
      length 3.241213
      axis 0.0 0.0 0.0 xyz
   end
   begin
      id 2
      name LeftUpLeg_dum
      direction 1.000000 0.000000 0.000000
      length 3.434019
      axis 0.0 0.0 0.0 xyz
   end
   begin
      id 3
      name RightUpLeg_dum
      direction -1.000000 0.000000 0.000000
      length 3.434019
      axis 0.0 0.0 0.0 xyz
   end
   begin
      id 4
      name Spine
      direction 0.000000 1.000000 0.000000
      length 0.000000
      axis 0.0 0.0 0.0 xyz
      dof rx ry rz
   end
   begin
      id 5
      name Spine_dum1
      direction 0.000000 1.000000 0.000000
      length 18.382958
      axis 0.0 0.0 0.0 xyz
   end
   begin
      id 6
      name Spine_dum2
      direction 0.000000 1.000000 0.000000
      length 12.828261
      axis 0.0 0.0 0.0 xyz
   end
   begin
      id 7
      name Spine_dum3
      direction 0.000000 1.000000 0.000000
      length 12.828261
      axis 0.0 0.0 0.0 xyz
   end
   begin
      id 8
      name Head
      direction 0.000000 1.000000 0.000000
      length 4.527550
      axis 0.0 0.0 0.0 xyz
      dof rx ry rz
   end
   begin
      id 9
      name LeftShoulder
      direction 1.000000 0.000000 0.000000
      length 7.748055
      axis 0.0 0.0 -90.0 xyz
      dof rx ry rz
   end
   begin
      id 10
      name LeftArm
      direction 1.000000 0.000000 0.000000
      length 10.635614
      axis 0.0 0.0 -90.0 xyz
      dof rx ry rz
   end
   begin
      id 11
      name LeftForeArm
      direction 1.000000 0.000000 0.000000
      length 8.346755
      axis 0.0 0.0 -90.0 xyz
      dof ry rz rx
   end
   begin
      id 12
      name LeftHand
      direction 0.000000 0.000000 0.000000
      length 0.000000
      axis 0.0 0.0 -90.0 xyz
      dof rx ry rz
   end
   begin
      id 13
      name LeftHand_dum1
      direction 0.000000 0.000000 0.000000
      length 0.000000
      axis 0.0 0.0 -90.0 xyz
   end
   begin
      id 14
      name LeftHand_dum2
      direction 1.000000 0.000000 0.000000
      length 3.937000
      axis 0.0 0.0 -90.0 xyz
   end
   begin
      id 15
      name LeftHandThumb1
      direction 0.000000 0.000000 1.000000
      length 3.937000
      axis 0.0 0.0 -90.0 xyz
      dof rx rz ry
   end
   begin
      id 16
      name RightShoulder
      direction -1.000000 0.000000 0.000000
      length 7.748055
      axis 0.0 0.0 90.0 xyz
      dof rx ry rz
   end
   begin
      id 17
      name RightArm
      direction -1.000000 0.000000 0.000000
      length 10.635614
      axis 0.0 0.0 90.0 xyz
      dof rx ry rz
   end
   begin
      id 18
      name RightForeArm
      direction -1.000000 0.000000 0.000000
      length 8.346755
      axis 0.0 0.0 90.0 xyz
      dof ry rz rx
   end
   begin
      id 19
      name RightHand
      direction 0.000000 0.000000 0.000000
      length 0.000000
      axis 0.0 0.0 90.0 xyz
      dof rx ry rz
   end
   begin
      id 20
      name RightHand_dum1
      direction 0.000000 0.000000 0.000000
      length 0.000000
      axis 0.0 0.0 90.0 xyz
   end
   begin
      id 21
      name RightHand_dum2
      direction -1.000000 0.000000 0.000000
      length 3.937000
      axis 0.0 0.0 90.0 xyz
   end
   begin
      id 22
      name RightHandThumb1
      direction 0.000000 0.000000 1.000000
      length 3.937000
      axis 0.0 0.0 90.0 xyz
      dof rx rz ry
   end
   begin
      id 23
      name LeftUpLeg
      direction 0.000000 -1.000000 0.000000
      length 15.713025
      axis 0.0 0.0 0.0 xyz
      dof rx ry rz
   end
   begin
      id 24
      name LeftLeg
      direction 0.000000 -1.000000 0.000000
      length 14.435119
      axis 0.0 0.0 0.0 xyz
      dof rx ry rz
   end
   begin
      id 25
      name LeftFoot
      direction 0.000000 -0.258819 0.965926
      length 4.938895
      axis 15.0 0.0 0.0 xyz
      dof rx ry rz
   end
   begin
      id 26
      name LeftToeBase
      direction 0.000000 0.000000 1.000000
      length 2.952750
      axis 0.0 0.0 0.0 xyz
      dof rx ry rz
   end
   begin
      id 27
      name RightUpLeg
      direction 0.000000 -1.000000 0.000000
      length 15.713025
      axis 0.0 0.0 0.0 xyz
      dof rx ry rz
   end
   begin
      id 28
      name RightLeg
      direction 0.000000 -1.000000 0.000000
      length 14.435119
      axis 0.0 0.0 0.0 xyz
      dof rx ry rz
   end
   begin
      id 29
      name RightFoot
      direction 0.000000 -0.258819 0.965926
      length 4.938895
      axis 15.0 0.0 0.0 xyz
      dof rx ry rz
   end
   begin
      id 30
      name RightToeBase
      direction 0.000000 0.000000 1.000000
      length 2.952750
      axis 0.0 0.0 0.0 xyz
      dof rx ry rz
   end
:hierarchy
   begin
      root Spine_dum LeftUpLeg_dum RightUpLeg_dum
      Spine_dum Spine
      LeftUpLeg_dum LeftUpLeg
      RightUpLeg_dum RightUpLeg
      Spine Spine_dum1 Spine_dum2 Spine_dum3
      Spine_dum1 Head
      Spine_dum2 LeftShoulder
      Spine_dum3 RightShoulder
      LeftShoulder LeftArm
      LeftArm LeftForeArm
      LeftForeArm LeftHand
      LeftHand LeftHand_dum1 LeftHand_dum2
      LeftHand_dum1 LeftHandThumb1
      RightShoulder RightArm
      RightArm RightForeArm
      RightForeArm RightHand
      RightHand RightHand_dum1 RightHand_dum2
      RightHand_dum1 RightHandThumb1
      LeftUpLeg LeftLeg
      LeftLeg LeftFoot
      LeftFoot LeftToeBase
      RightUpLeg RightLeg
      RightLeg RightFoot
      RightFoot RightToeBase
   end

# File created by Blade
# Date/Time:  Mon Sep 22 19:00:17 2014
# Frame Rate: 120.000 fps
#------------------------------------------------------
:FULLY-SPECIFIED
:DEGREES
1045
root -0.701661 32.783413 -3.973882 37.386586 21.118219 2.312781
Spine -45.743822 11.457989 -13.981914
Head 7.608913 -20.003833 -9.898795
LeftShoulder -8.386979 42.882634 12.855741
LeftArm 72.966432 34.553018 -46.442547
LeftForeArm 8.611164 -0.000000 7.312840
LeftHand -18.824317 0.000000 -9.365240
LeftHandThumb1 -26.253704 0.000000 33.147579
RightShoulder -11.705684 -3.501804 -48.447980
RightArm 115.174974 34.711343 126.816344
RightForeArm 79.100391 -0.000000 129.588005
RightHand 26.567082 0.000000 -9.260279
RightHandThumb1 -24.326973 -0.000000 -32.862282
LeftUpLeg -34.926320 -6.292086 6.906830
LeftLeg -0.541206 -0.000000 0.000000
LeftFoot 0.807472 -5.912940 -3.740182
LeftToeBase 2.029385 -0.000000 -0.000000
RightUpLeg -30.038928 -19.333355 10.156200
RightLeg -3.379587 -0.000000 0.000000
RightFoot -9.388427 -13.168345 19.612058
RightToeBase 15.032533 -0.000000 -0.000000
1046
root -0.702827 32.783936 -3.975949 37.415298 21.095888 2.306242
Spine -45.759317 11.441465 -13.985233
Head 7.580856 -20.001847 -9.833340
LeftShoulder -8.380000 42.870260 12.853934
LeftArm 72.975373 34.550464 -46.419853
LeftForeArm 8.581506 -0.000000 7.332813
LeftHand -18.832914 -0.000000 -9.359982
LeftHandThumb1 -26.253704 0.000000 33.147579
RightShoulder -11.720780 -3.512857 -48.441944
RightArm 115.181790 34.697502 126.834151
RightForeArm 79.020104 -0.000000 129.501468
RightHand 26.556526 -0.000000 -9.319705
RightHandThumb1 -24.326973 -0.000000 -32.862282
LeftUpLeg -34.959402 -6.274593 6.908977
LeftLeg -0.535720 -0.000000 0.000000
LeftFoot 0.806257 -5.913824 -3.756275
LeftToeBase 2.047023 -0.000000 -0.000000
RightUpLeg -30.084695 -19.318364 10.168743
RightLeg -3.366137 -0.000000 0.000000
RightFoot -9.386236 -13.176209 19.595941
RightToeBase 15.051209 -0.000000 -0.000000
1047
root -0.702494 32.783825 -3.976735 37.429434 21.070475 2.301910
Spine -45.762298 11.430214 -13.976255
Head 7.559518 -19.981759 -9.799946
LeftShoulder -8.378044 42.885361 12.837841
LeftArm 72.977282 34.524413 -46.414941
LeftForeArm 8.567935 0.000000 7.366077
LeftHand -18.849853 -0.000000 -9.409134
LeftHandThumb1 -26.253704 0.000000 33.147579
RightShoulder -11.732313 -3.492546 -48.456132
RightArm 115.151746 34.690794 126.826244
RightForeArm 78.944210 0.000000 129.396378
RightHand 26.490615 -0.000000 -9.301406
RightHandThumb1 -24.326973 -0.000000 -32.862282
LeftUpLeg -34.971349 -6.271192 6.912047
LeftLeg -0.537704 -0.000000 0.000000
LeftFoot 0.798659 -5.887599 -3.753693
LeftToeBase 2.055883 -0.000000 -0.000000
RightUpLeg -30.096070 -19.281267 10.154107
RightLeg -3.369284 -0.000000 0.000000
RightFoot -9.388946 -13.202297 19.558657
RightToeBase 15.076188 -0.000000 -0.000000
1048
root -0.702712 32.783822 -3.977471 37.447787 21.048393 2.300008
Spine -45.768927 11.406177 -13.977902
Head 7.537913 -19.979809 -9.736340
LeftShoulder -8.377011 42.884958 12.840467
LeftArm 72.977025 34.515939 -46.420784
LeftForeArm 8.585469 -0.000000 7.386874
LeftHand -18.875186 -0.000000 -9.430852
LeftHandThumb1 -26.253704 0.000000 33.147579
RightShoulder -11.727316 -3.509810 -48.440923
RightArm 115.178374 34.691813 126.840309
RightForeArm 78.893086 -0.000000 129.279801
RightHand 26.492216 -0.000000 -9.303857
RightHandThumb1 -24.326973 -0.000000 -32.862282
LeftUpLeg -34.987685 -6.253993 6.904156
LeftLeg -0.536192 -0.000000 0.000000
LeftFoot 0.791759 -5.879825 -3.745359
LeftToeBase 2.048270 -0.000000 -0.000000
RightUpLeg -30.120620 -19.276911 10.160992
RightLeg -3.371175 -0.000000 0.000000
RightFoot -9.376946 -13.180588 19.570650
RightToeBase 15.076700 -0.000000 -0.000000
1049
root -0.702421 32.784179 -3.978784 37.474410 21.020831 2.301817
Spine -45.782282 11.382703 -13.975387
Head 7.520442 -19.965348 -9.696694
LeftShoulder -8.378273 42.894615 12.826361
LeftArm 72.964482 34.493301 -46.426329
LeftForeArm 8.603053 0.000000 7.426185
LeftHand -18.885166 -0.000000 -9.411770
LeftHandThumb1 -26.253704 0.000000 33.147579
RightShoulder -11.721702 -3.487130 -48.449882
RightArm 115.152862 34.719967 126.821364
RightForeArm 78.858152 0.000000 129.153443
RightHand 26.549258 0.000000 -9.286903
RightHandThumb1 -24.326973 -0.000000 -32.862282
LeftUpLeg -35.009105 -6.250948 6.908517
LeftLeg -0.543073 -0.000000 0.000000
LeftFoot 0.797514 -5.885327 -3.805495
LeftToeBase 2.121705 -0.000000 -0.000000
RightUpLeg -30.154311 -19.262911 10.156144
RightLeg -3.363839 -0.000000 0.000000
RightFoot -9.370647 -13.150414 19.606904
RightToeBase 15.031684 -0.000000 -0.000000
1050
root -0.701344 32.784157 -3.978334 37.476259 21.008815 2.298202
Spine -45.778074 11.366773 -13.973886
Head 7.514573 -19.983066 -9.650535
LeftShoulder -8.366189 42.893686 12.828469
LeftArm 72.969467 34.481505 -46.427838
LeftForeArm 8.608956 -0.000000 7.435778
LeftHand -18.879399 0.000000 -9.381831
LeftHandThumb1 -26.253704 0.000000 33.147579
RightShoulder -11.729100 -3.502468 -48.444271
RightArm 115.143900 34.736805 126.821033
RightForeArm 78.740161 -0.000000 128.983759
RightHand 26.521691 0.000000 -9.201553
RightHandThumb1 -24.326973 -0.000000 -32.862282
LeftUpLeg -35.007039 -6.246409 6.907069
LeftLeg -0.545591 -0.000000 0.000000
LeftFoot 0.810919 -5.875480 -3.796127
LeftToeBase 1.998940 -0.000000 -0.000000
RightUpLeg -30.156134 -19.269858 10.162204
RightLeg -3.370480 -0.000000 0.000000
RightFoot -9.356675 -13.140693 19.589339
RightToeBase 15.036004 -0.000000 -0.000000
1051
root -0.701327 32.784007 -3.978503 37.482232 20.988100 2.295410
Spine -45.773797 11.348110 -13.969305
Head 7.493261 -19.994130 -9.599218
LeftShoulder -8.363551 42.890059 12.822195
LeftArm 72.963976 34.460938 -46.431188
LeftForeArm 8.554085 -0.000000 7.449371
LeftHand -18.862421 -0.000000 -9.384973
LeftHandThumb1 -26.253704 0.000000 33.147579
RightShoulder -11.722340 -3.549067 -48.440351
RightArm 115.175130 34.736655 126.847814
RightForeArm 78.621740 0.000000 128.821935
RightHand 26.477850 -0.000000 -9.221052
RightHandThumb1 -24.326973 -0.000000 -32.862282
LeftUpLeg -35.004382 -6.241582 6.906257
LeftLeg -0.558930 -0.000000 0.000000
LeftFoot 0.807396 -5.859974 -3.797213
LeftToeBase 2.034405 -0.000000 -0.000000
RightUpLeg -30.168509 -19.270872 10.167356
RightLeg -3.368680 -0.000000 0.000000
RightFoot -9.345817 -13.121221 19.577681
RightToeBase 15.028858 -0.000000 -0.000000
